<?xml version="1.0" encoding="UTF-8"?>
<svg id="Layer_2" data-name="Layer 2" xmlns="http://www.w3.org/2000/svg" viewBox="0 0 37.21 49.21">
  <defs>
    <style>
      .cls-1 {
        fill: #fff;
      }
    </style>
  </defs>
  <g id="_メイン" data-name="メイン">
    <path class="cls-1" d="M3.19,3.62C1.55,4.99,.44,6.32,.05,8.93c-.43,2.91,1.62,13.3,7.19,22.64,5.56,9.34,13.72,16.09,16.49,17.1,2.48,.91,4.18,.56,6.16-.23,1.99-.79,5.1-2.84,5.52-3.29,.42-.45,1.86-2,1.8-3.43-.07-1.44-2.89-3.74-5.61-5.12-2.68-1.36-5.16-2.54-6.68-2.12-2.08,.57-2.45,2.34-2.36,3.47,0,0-1.15,1.37-3.06-.34-1.91-1.72-6.18-8.47-6.7-9.35-.52-.87-4.43-7.85-5.03-10.34-.6-2.5,1.16-2.85,1.16-2.85,.96,.61,2.69,1.14,4.18-.42,1.09-1.14,1.23-3.88,1.31-6.88,.08-3.05-.6-6.63-1.83-7.37-1.23-.74-3.28-.21-3.87-.06-.6,.16-3.88,1.92-5.52,3.29Z"/>
  </g>
</svg>