<?xml version="1.0" encoding="UTF-8"?>
<svg id="Layer_2" data-name="Layer 2" xmlns="http://www.w3.org/2000/svg" viewBox="0 0 174.27 210">
  <defs>
    <style>
      .cls-1 {
        fill: #fff;
      }
    </style>
  </defs>
  <g id="_メイン" data-name="メイン">
    <g>
      <path class="cls-1" d="M132.13,75.81c-4.79,0-8.69,3.9-8.69,8.69v14.8c0,4.79,3.9,8.69,8.69,8.69s8.69-3.9,8.69-8.69v-14.8c0-4.79-3.9-8.69-8.69-8.69Z"/>
      <path class="cls-1" d="M92.33,190c-16.79-.19-28.68-3.21-34.72-5.84v25.84H126.85v-25.84c-6.23,2.44-16.79,6.04-34.53,5.84Z"/>
      <path class="cls-1" d="M87.14,32.83c2.76,0,5-2.24,5-5V5c0-2.76-2.24-5-5-5s-5,2.24-5,5V27.83c0,2.76,2.24,5,5,5Z"/>
      <path class="cls-1" d="M27.27,60.25L7.5,48.83c-2.39-1.38-5.45-.56-6.83,1.83H.67c-1.38,2.39-.56,5.45,1.83,6.83l19.77,11.42c2.39,1.38,5.45,.56,6.83-1.83h0c1.38-2.39,.56-5.45-1.83-6.83Z"/>
      <path class="cls-1" d="M52.34,41.2c2.39-1.38,3.21-4.44,1.83-6.83l-11.42-19.77c-1.38-2.39-4.44-3.21-6.83-1.83-2.39,1.38-3.21,4.44-1.83,6.83l11.42,19.77c1.38,2.39,4.44,3.21,6.83,1.83Z"/>
      <path class="cls-1" d="M173.6,50.66h0c-1.38-2.39-4.44-3.21-6.83-1.83l-19.77,11.42c-2.39,1.38-3.21,4.44-1.83,6.83h0c1.38,2.39,4.44,3.21,6.83,1.83l19.77-11.42c2.39-1.38,3.21-4.44,1.83-6.83Z"/>
      <path class="cls-1" d="M138.35,12.77c-2.39-1.38-5.45-.56-6.83,1.83l-11.42,19.77c-1.38,2.39-.56,5.45,1.83,6.83,2.39,1.38,5.45,.56,6.83-1.83l11.42-19.77c1.38-2.39,.56-5.45-1.83-6.83Z"/>
      <path class="cls-1" d="M109.09,104.78c4.79,0,8.69-3.9,8.69-8.69v-25.69c0-4.79-3.9-8.69-8.69-8.69s-8.69,3.9-8.69,8.69v25.69c0,4.79,3.9,8.69,8.69,8.69Z"/>
      <path class="cls-1" d="M86.05,100.17c4.79,0,8.69-3.9,8.69-8.69v-29.96c0-4.79-3.9-8.69-8.69-8.69s-8.69,3.9-8.69,8.69v29.96c0,4.79,3.9,8.69,8.69,8.69Z"/>
      <path class="cls-1" d="M119.45,106c-2.61,2.73-6.29,4.44-10.36,4.44-5.86,0-10.91-3.54-13.14-8.59-2.58,2.46-6.06,3.98-9.9,3.98-.21,0-.42,0-.63-.02,.52,1.39,.38,2.55,.1,3.37-1.11,3.26-5.11,4.42-10.17,5.88-2.31,.67-4.69,1.36-6.83,2.26-2.17,.91-3.93,2.98-5.15,4.85,7.15-.45,20.35-.5,29.14,8.92,6.19,6.64,6.97,12.01,7.75,26.91,.08,1.56-1.12,2.89-2.68,2.97-.05,0-.1,0-.15,0-1.49,0-2.74-1.17-2.82-2.68-.76-14.54-1.39-18.15-6.24-23.35-7.82-8.38-20.94-7.41-26.55-6.99-2.78,.21-4.05,.3-5.15-.92-.61-.68-.86-1.59-.7-2.49,.29-1.55,3.89-9.72,10.35-12.44,2.45-1.03,5.11-1.8,7.46-2.48,2.06-.6,5.06-1.46,6.15-2.18-.02-.03-.05-.07-.08-.11-4.11-5.59-15.26-9.7-27.82-6.28-6.95,1.89-11.36,5.55-11.8,9.81-.01,.12-.03,.23-.06,.34-.76,28.73,.12,31.38,1.7,36.12,.07,.22,.15,.44,.22,.67,1.16,3.52,5.99,11.27,14.58,18.2,7.12,5.75,18.98,12.58,35.13,12.58,.06,0,.13,0,.19,0,8.26-.03,15.73-1.48,22.19-4.33,5.19-2.28,9.76-5.47,13.59-9.48,6.33-6.61,8.85-13.68,9.13-15.08,1.98-10.29,2.03-24.3,2.03-37.95-2.03,1.1-4.34,1.72-6.8,1.72-5.49,0-10.27-3.1-12.68-7.65Z"/>
      <path class="cls-1" d="M54.33,85.48c0,4.79,3.9,8.69,8.69,8.69s8.69-3.9,8.69-8.69v-18.02c0-4.79-3.9-8.69-8.69-8.69s-8.69,3.9-8.69,8.69v18.02Z"/>
    </g>
  </g>
</svg>