<svg xmlns="http://www.w3.org/2000/svg" id="Layer_2" data-name="Layer 2" viewBox="0 0 150 179.86"><defs><style>.cls-1{fill:#fff}</style></defs><g id="_メイン" data-name="メイン"><path d="M139.04 98.61v6.77c0 26.98-16.68 50.06-40.29 59.49.59 1.26.93 2.67.93 4.15v2.94c26.16-8.06 45.17-32.41 45.17-61.22V97.09c-1.42.37-3.42.9-5.81 1.52ZM52.34 169.02c0-1.23.23-2.4.64-3.48-24.53-8.98-42.03-32.52-42.03-60.16v-6.77c-2.39-.63-4.39-1.15-5.81-1.52v13.65c0 29.54 20 54.41 47.2 61.8v-3.52Z" class="cls-1"/><rect width="40.58" height="17.25" x="55.72" y="162.61" class="cls-1" rx="8.4" ry="8.4"/><path d="M149.87 85.27c-.18-3.48.55-6.55-2.68-7.88l-2.67-1.09c.02.38.03.77.04 1.15.1 3.5-2.29 6.64-5.68 7.48L93.92 96.05c-6.19 1.53-12.55 2.31-18.93 2.31s-12.74-.78-18.93-2.31L11.11 84.94c-3.41-.84-5.8-4.01-5.68-7.52.01-.37.03-.75.05-1.12l-2.66 1.09C-.39 78.7.36 81.74.15 85.2.09 86.26.04 87.31 0 88.37a4.816 4.816 0 0 0 3.67 4.85l50 13.08c14 3.46 28.64 3.46 42.64 0l50.01-13.08a4.84 4.84 0 0 0 3.67-4.83c-.03-1.03-.07-2.07-.13-3.11Z" class="cls-1"/><path d="M107.75 8.65v27.94c0 1.4-1.14 2.54-2.54 2.54s-2.54-1.14-2.54-2.54V5.9c-3.66-1.75-7.62-3.15-11.88-4.15v47.74c0 1.4-1.14 2.54-2.54 2.54s-2.54-1.14-2.54-2.54V.78C82.31.27 78.74 0 74.98 0S67.77.29 64.4.85v48.64c0 1.4-1.14 2.54-2.54 2.54s-2.54-1.14-2.54-2.54V1.91c-4.3 1.1-8.3 2.65-12.03 4.57v27.5c0 1.4-1.14 2.54-2.54 2.54s-2.54-1.14-2.54-2.54V9.45C20.39 23.8 9.68 52.12 8.82 77.53a4.087 4.087 0 0 0 3.11 4.12l44.95 11.11a75.514 75.514 0 0 0 36.23 0l44.96-11.12a4.102 4.102 0 0 0 3.12-4.1c-.76-25.9-10.44-54.81-33.43-68.9Z" class="cls-1"/></g></svg>