<?xml version="1.0" encoding="UTF-8"?>
<svg id="Layer_2" data-name="Layer 2" xmlns="http://www.w3.org/2000/svg" viewBox="0 0 150 179.86">
  <defs>
    <style>
      .cls-1 {
        fill: #fff;
      }
    </style>
  </defs>
  <g id="_メイン" data-name="メイン">
    <g>
      <path class="cls-1" d="M139.04,98.61v6.77c0,26.98-16.68,50.06-40.29,59.49,.59,1.26,.93,2.67,.93,4.15v2.94c26.16-8.06,45.17-32.41,45.17-61.22v-13.65c-1.42,.37-3.42,.9-5.81,1.52Z"/>
      <path class="cls-1" d="M52.34,169.02c0-1.23,.23-2.4,.64-3.48-24.53-8.98-42.03-32.52-42.03-60.16v-6.77c-2.39-.63-4.39-1.15-5.81-1.52v13.65c0,29.54,20,54.41,47.2,61.8v-3.52Z"/>
      <rect class="cls-1" x="55.72" y="162.61" width="40.58" height="17.25" rx="8.4" ry="8.4"/>
      <path class="cls-1" d="M149.87,85.27c-.18-3.48,.55-6.55-2.68-7.88l-2.67-1.09c.02,.38,.03,.77,.04,1.15,.1,3.5-2.29,6.64-5.68,7.48l-44.96,11.12c-6.19,1.53-12.55,2.31-18.93,2.31s-12.74-.78-18.93-2.31l-44.95-11.11c-3.41-.84-5.8-4.01-5.68-7.52,.01-.37,.03-.75,.05-1.12l-2.66,1.09c-3.21,1.31-2.46,4.35-2.67,7.81-.06,1.06-.11,2.11-.15,3.17-.08,2.28,1.45,4.31,3.67,4.85l50,13.08c14,3.46,28.64,3.46,42.64,0l50.01-13.08c2.21-.55,3.73-2.56,3.67-4.83-.03-1.03-.07-2.07-.13-3.11Z"/>
      <path class="cls-1" d="M107.75,8.65v27.94c0,1.4-1.14,2.54-2.54,2.54s-2.54-1.14-2.54-2.54V5.9c-3.66-1.75-7.62-3.15-11.88-4.15V49.49c0,1.4-1.14,2.54-2.54,2.54s-2.54-1.14-2.54-2.54V.78c-3.4-.51-6.97-.78-10.73-.78s-7.21,.29-10.58,.85V49.49c0,1.4-1.14,2.54-2.54,2.54s-2.54-1.14-2.54-2.54V1.91c-4.3,1.1-8.3,2.65-12.03,4.57v27.5c0,1.4-1.14,2.54-2.54,2.54s-2.54-1.14-2.54-2.54V9.45C20.39,23.8,9.68,52.12,8.82,77.53c-.07,1.94,1.23,3.66,3.11,4.12l44.95,11.11c11.9,2.94,24.33,2.94,36.23,0l44.96-11.12c1.88-.46,3.17-2.17,3.12-4.1-.76-25.9-10.44-54.81-33.43-68.9Z"/>
    </g>
  </g>
</svg>