<?xml version="1.0" encoding="UTF-8"?>
<svg id="Layer_2" data-name="Layer 2" xmlns="http://www.w3.org/2000/svg" viewBox="0 0 148 187.25">
  <defs>
    <style>
      .cls-1 {
        fill: #fff;
      }
    </style>
  </defs>
  <g id="_メイン" data-name="メイン">
    <path class="cls-1" d="M130.94,90.35c-12.64-30.6-18.1-30.74-21.69-50.42-3.45-18.94-.19-28.73-8.13-35.24-11.36-9.31-35.11-3.3-37.95,5.42-1.08,3.32,1.21,5.99,.25,12.22,.7,1.61,1.66,2.86,2.86,3.73,1.1,.8,1.87,.88,7.56,1.25,1.32,.09,2.81,.18,4.59,.31,.58,.04,1.11,.08,1.61,.12,4.77,.36,5.54,.37,6.76-.21,2.04-.96,3.21-2.14,3.31-3.31,.12-1.41-1.24-2.77-2.18-3.34-1.62-.99-3.9-.86-5.81,.33-1.29,.81-2.99,.42-3.79-.87-.81-1.29-.42-2.99,.87-3.79,3.72-2.33,8.16-2.46,11.6-.36,2.41,1.47,5.11,4.58,4.79,8.49-.33,3.93-3.39,6.3-6.06,7.64-.02,.03-.03,.05-.05,.08-.94,1.44-1.89,3.19-2.19,7.47-.15,2.11,.08,4.22,.67,6.28,.42,1.46-.42,2.98-1.88,3.41-.25,.07-.51,.11-.76,.11-1.19,0-2.29-.78-2.64-1.99-.77-2.68-1.07-5.43-.88-8.18,.18-2.54,.57-4.48,1.08-6.04-.93-.05-2-.13-3.27-.22-.49-.04-1.03-.08-1.6-.12-1.77-.13-3.25-.23-4.56-.31-6.16-.4-8.01-.53-10.44-2.3-.66-.48-1.27-1.02-1.84-1.62-.84,1.45-1.6,2.45-1.82,4.54-.94,8.69,10.28,20.13,17.18,24.28,8.72,5.24,6.99,2.57,10.81,7.48,3.17,4.08,4.62,8.96,4.27,19.92-.45,14.03,.35,13.89,.82,23.68,.39,8.02,2.12,12.83,2.47,15.79,1.26,1.34,2.69,2.48,4.28,3.41,4,2.34,7.97,2.73,10.6,2.64,1.52-.05,2.79,1.14,2.84,2.66,.05,1.52-1.14,2.79-2.66,2.84-.27,0-.55,.01-.83,.01-3.32,0-7.99-.64-12.72-3.41-2.22-1.3-4.2-2.91-5.91-4.82-6.22-1.64-19.15-8.93-40.14-8.18-21.8,.78-46.84,15.47-47.92,17.25-6.16,10.15,.21,26.79,9.22,36.33,14.03,14.85,36.17,13.93,50.96,13.93,22.84,0,53.61-12.86,62.68-16.76,9.09-3.91,14.39-3.04,17.53-6.39,12.87-13.76-1.04-47.43-11.9-73.73Zm-47.41,78.79c-6.65,1.68-13.41,2.52-20.18,2.52-2.67,0-5.34-.13-8.01-.39-6.51-.64-12.95-2.07-19.15-4.26-1.43-.5-2.19-2.08-1.68-3.51,.5-1.43,2.07-2.19,3.51-1.68,5.78,2.04,11.79,3.37,17.86,3.97,8.79,.87,17.64,.2,26.3-1.99,1.47-.37,2.97,.52,3.34,1.99,.37,1.47-.52,2.97-1.99,3.34Z"/>
  </g>
</svg>